<svg xmlns="http://www.w3.org/2000/svg" version="1.1" xmlns:xlink="http://www.w3.org/1999/xlink" xmlns:svgjs="http://svgjs.com/svgjs" width="1920" height="720" preserveAspectRatio="none" viewBox="0 0 1920 720"><g mask="url(&quot;#SvgjsMask1077&quot;)" fill="none"><rect width="1920" height="720" x="0" y="0" fill="rgba(102, 227, 196, 1)"></rect><path d="M0,612.497C114.792,616.152,218.429,552.287,314.029,488.639C408.377,425.824,516.958,358.849,545.674,249.201C573.847,141.624,499.491,37.65,459.294,-66.036C427.725,-147.467,381.808,-216.823,336.142,-291.269C280.489,-381.997,259.107,-507.907,161.796,-551.028C64.24,-594.257,-56.266,-559.559,-148.594,-506.066C-232.866,-457.241,-247.137,-342.65,-316.268,-274.047C-394.023,-196.886,-540.572,-186.624,-575.215,-82.703C-609.289,19.51,-528.716,123.071,-480.825,219.585C-434.358,313.228,-382.383,402.893,-301.435,469.041C-213.487,540.908,-113.519,608.882,0,612.497" fill="#29d8ac"></path><path d="M1920 1475.046C2062.468 1478.181 2191.717 1406.229 2314.124 1333.268 2440.175 1258.136 2581.698 1183.378 2637.226 1047.546 2692.232 912.992 2615.016 766.522 2605.096 621.498 2594.165 461.701 2666.909 283.454 2575.94 151.62400000000002 2484.3289999999997 18.863000000000056 2298.252 4.111999999999966 2144.79-45.56299999999999 1986.873-96.67999999999995 1825.748-190.14300000000003 1666.69-142.69500000000005 1507.748-95.28200000000004 1408.743 60.048 1320.325 200.37900000000002 1241.472 325.529 1194.371 467.111 1189.325 614.9449999999999 1184.626 752.632 1231.636 882.988 1292.815 1006.4259999999999 1352.393 1126.634 1429.393 1235.863 1536.868 1316.1660000000002 1649.912 1400.63 1778.92 1471.942 1920 1475.046" fill="#a3eedc"></path></g><defs><mask id="SvgjsMask1077"><rect width="1920" height="720" fill="#ffffff"></rect></mask></defs></svg>